<svg xmlns="http://www.w3.org/2000/svg" viewBox="0 0 300 200"><defs><style>.cls-1{fill:#231f20;}</style></defs><g id="Layer_1" data-name="Layer 1"><path class="cls-1" d="M28,100.15a10.33,10.33,0,0,1,4.35-8.42q9.72-7.17,19.52-14.25a4.58,4.58,0,0,1,6.48.93,4.49,4.49,0,0,1-1.12,6.51c-2.4,1.77-4.81,3.5-7.21,5.27a12,12,0,0,0,.1,19.69c2.48,1.8,5,3.54,7.42,5.44A4.53,4.53,0,0,1,56.6,123a4.73,4.73,0,0,1-5-.77c-4.62-3.38-9.27-6.73-13.9-10.09-1.78-1.29-3.57-2.57-5.32-3.89A10.53,10.53,0,0,1,28,100.15Z"/><path class="cls-1" d="M56.84,106.91a6.92,6.92,0,1,1,7-6.75A6.81,6.81,0,0,1,56.84,106.91Z"/><path class="cls-1" d="M107.78,101.73a14.06,14.06,0,0,1-3.44,9.71,11.92,11.92,0,0,1-9.32,4,11.44,11.44,0,0,1-4.51-1,10.57,10.57,0,0,1-2.18-1c-.24,0-.36.27-.36.82,0,.93,0,2.32.14,4.19s.13,3.27.13,4.2a.78.78,0,0,1-.9.87l-5.57,0a12.92,12.92,0,0,1-2.43-.14,1,1,0,0,1-.82-1l0-21a51.09,51.09,0,0,0-1-10.74,2.91,2.91,0,0,1,0-.46.53.53,0,0,1,.33-.55A23.78,23.78,0,0,1,82,88.65a30.79,30.79,0,0,1,4.23-.47c.71,0,1.12.47,1.22,1.41s.22,1.41.37,1.41c-.18,0,.6-.5,2.34-1.49A9.64,9.64,0,0,1,94.86,88a12.18,12.18,0,0,1,9.48,3.91A14,14,0,0,1,107.78,101.73Zm-10.14,0a5.8,5.8,0,0,0-1.34-3.82,4.48,4.48,0,0,0-3.57-1.73,4.17,4.17,0,0,0-3.5,1.73,6.21,6.21,0,0,0-1.15,3.82,6,6,0,0,0,1.2,3.85,4.24,4.24,0,0,0,3.55,1.67Q97.65,107.2,97.64,101.68Z"/><path class="cls-1" d="M136.36,100c0,1.84-.59,2.89-1.78,3.14q-.3.06-5.65.6-3.23.36-9.62.85a3.89,3.89,0,0,0,2.32,2.71,8.21,8.21,0,0,0,3.61.76,10.37,10.37,0,0,0,4.89-1.31l2.08-1.31q.57.27,1.92,2.79a10.12,10.12,0,0,1,1.36,3.19c0,.13-.14.34-.41.63q-3.35,3.59-10.36,3.58a14.6,14.6,0,0,1-10.49-3.8,13.47,13.47,0,0,1-4.1-10.3,14.7,14.7,0,0,1,3.66-10.3,12.86,12.86,0,0,1,10-4.15,11.86,11.86,0,0,1,8.91,3.82A12.72,12.72,0,0,1,136.36,100Zm-9.56-1.67a4.2,4.2,0,0,0-1.2-3,3.81,3.81,0,0,0-2.87-1.29,3.45,3.45,0,0,0-2.85,1.45,5,5,0,0,0-1,3.14.66.66,0,0,0,.76.74,48,48,0,0,0,6.29-.63C126.5,98.72,126.8,98.57,126.8,98.37Z"/><path class="cls-1" d="M164.4,100c0,1.84-.6,2.89-1.78,3.14q-.3.06-5.66.6-3.22.36-9.61.85a3.84,3.84,0,0,0,2.32,2.71,8.17,8.17,0,0,0,3.6.76,10.38,10.38,0,0,0,4.9-1.31l2.07-1.31c.39.18,1,1.11,1.93,2.79a10.25,10.25,0,0,1,1.35,3.19c0,.13-.14.34-.41.63q-3.33,3.59-10.35,3.58a14.61,14.61,0,0,1-10.5-3.8,13.47,13.47,0,0,1-4.1-10.3,14.66,14.66,0,0,1,3.67-10.3,12.83,12.83,0,0,1,10-4.15,11.86,11.86,0,0,1,8.9,3.82A12.69,12.69,0,0,1,164.4,100Zm-9.57-1.67a4.2,4.2,0,0,0-1.2-3,3.79,3.79,0,0,0-2.87-1.29,3.44,3.44,0,0,0-2.84,1.45,5,5,0,0,0-1,3.14.67.67,0,0,0,.77.74,47.92,47.92,0,0,0,6.28-.63C154.53,98.72,154.83,98.57,154.83,98.37Z"/><path class="cls-1" d="M185.52,97.86c0,.71-.4,1.06-1.18,1.06-.34,0-.85,0-1.51-.07s-1.17-.07-1.49-.07a4.9,4.9,0,0,0-3.09.71c-.55.48-.82,1.43-.82,2.87,0,.79,0,2,0,3.57s0,2.78,0,3.56c0,.53,0,1.32.11,2.37s.11,1.83.11,2.33-.3.69-.9.74c-.88.07-2.21.11-4,.11a41.5,41.5,0,0,1-4.15-.16c-.6-.07-.9-.38-.9-.9q0-2.19,0-6.55t0-6.54a39.91,39.91,0,0,0-1.17-10.58,1.76,1.76,0,0,1-.06-.41.53.53,0,0,1,.41-.54c1-.11,2.47-.31,4.4-.6,2.88-.57,4.36-.85,4.45-.85.33,0,.54.57.63,1.72s.26,1.72.49,1.72c-.25,0,.5-.48,2.25-1.43a10.46,10.46,0,0,1,5-1.44q1.53,0,1.53.66a21,21,0,0,1-.16,2.24c-.11,1-.18,1.78-.19,2.24s0,1.23,0,2.1C185.5,96.8,185.52,97.51,185.52,97.86Z"/><path class="cls-1" d="M218.55,106.38a36,36,0,0,1-.47,4.32,17,17,0,0,1-.87,4.07,1,1,0,0,1-.91.52,7.52,7.52,0,0,1-.81-.08c-1.34-.19-5.21-.28-11.65-.28l-6.25,0-6.23,0c-.6,0-.9-.27-.9-.79q0-3.06.34-9.2t.34-9.19q0-3.12-.33-11.62-.08-2.17-.3-6.53l0-.38q0-.63.69-.63,2,0,6.08.11t6.08.11q2,0,6-.11t6-.11c1,0,1.49.36,1.64,1.07q.13.63.42,3.81c.19,2.12.29,3.41.29,3.87s-.18.57-.55.57l-.57,0q-7.28-.6-13.06-.6c-1,0-1.56.23-1.78.68A8.59,8.59,0,0,0,201.6,88a3.88,3.88,0,0,0,.55,2.46,2.38,2.38,0,0,0,1.78.52L205,91c.53,0,1,0,1.31,0q3.45,0,7-.19l1.5-.13a11.93,11.93,0,0,1,1.48-.11q.66,0,.66.63a37,37,0,0,0-.5,4.18c-.14,1.45-.21,2.91-.21,4.37,0,.36-.27.54-.8.54l-2.46-.27q-1.55-.17-7.1-.16h-2.9c-.74,0-1.18.18-1.31.54,0,.1,0,.66,0,1.7a8.07,8.07,0,0,0,.28,2.68c.31.69,1.47,1.1,3.5,1.23h4c1,0,2.4-.09,4.31-.26s3.33-.26,4.27-.26C218.35,105.4,218.55,105.72,218.55,106.38Z"/><path class="cls-1" d="M249.15,114.09a.78.78,0,0,1-.77.84c-.51.07-1.84.11-4,.11a31.39,31.39,0,0,1-4.26-.16,1,1,0,0,1-.82-1.12c0-.86,0-2.15.08-3.88s.09-3,.09-3.91c0-.67,0-1.68-.06-3s0-2.34,0-3c0-2.49-1.09-3.74-3.25-3.74a4.73,4.73,0,0,0-2.49.93c-1,.69-1.53,1.37-1.53,2v14.75a.89.89,0,0,1-.85,1c-.64.07-1.94.11-3.91.11a31.93,31.93,0,0,1-4.15-.16.86.86,0,0,1-.85-.9q0-2.13,0-6.43c0-2.86,0-5,0-6.44a42.16,42.16,0,0,0-1.07-10.69,2.38,2.38,0,0,1-.05-.41.59.59,0,0,1,.41-.6q1.73-.19,4.59-.6c2.89-.56,4.53-.85,4.89-.85.2,0,.35.62.46,1.85s.27,1.84.47,1.84c-.2,0,.78-.63,2.94-1.9a11.63,11.63,0,0,1,5.67-1.9,9.82,9.82,0,0,1,5.79,1.64,6.13,6.13,0,0,1,2.59,5.25v8.72q0,1.77,0,5.31C249.14,111.13,249.15,112.9,249.15,114.09Z"/><path class="cls-1" d="M272,106.87a23.85,23.85,0,0,1-.2,2.49,21.75,21.75,0,0,0-.21,2.44,1.92,1.92,0,0,1-.16,1,3.11,3.11,0,0,1-.91.63,15.93,15.93,0,0,1-7.81,1.94q-7.89,0-7.9-6c0-1.2,0-3,.14-5.42s.14-4.22.14-5.43c0-.8-.47-1.2-1.4-1.2h-.35l-.36,0c-.69,0-1-.25-1-.74,0-.29,0-.74.07-1.34s.07-1,.07-1.34,0-1-.07-1.75-.07-1.36-.07-1.75.59-.56,1.75-.6c.66,0,1-.2,1.07-.54a20.86,20.86,0,0,0,.11-3.28c-.07-2.35-.11-3.47-.11-3.36,0-2.11.2-3.17.6-3.17a9.68,9.68,0,0,1,2.1.33c1,.23,1.76.37,2.16.41.93.12,2.33.3,4.21.52.46,0,.68.19.68.46,0,.73-.06,1.83-.17,3.31s-.18,2.58-.18,3.33.26,1.34.79,1.34,1.6,0,2.9-.08,2.27-.09,2.92-.09c.4,0,.6.14.6.41,0,.42,0,1.05-.13,1.89a16.94,16.94,0,0,0-.14,1.89c0,.43,0,1.07,0,1.91s0,1.47,0,1.91-.26.57-.79.57c-.36,0-1,0-1.83,0l-1.83,0h-2.05c-.27,0-.41.4-.41,1.2v1.94c0,.88,0,1.53,0,1.94a6.67,6.67,0,0,0,.52,3.17c.49.79,1.45,1.18,2.89,1.18a8.9,8.9,0,0,0,2-.32,9.28,9.28,0,0,1,1.79-.31Q272,106.27,272,106.87Z"/></g></svg>