<?xml version="1.0" encoding="utf-8"?>
<!-- Generator: Adobe Illustrator 26.0.1, SVG Export Plug-In . SVG Version: 6.00 Build 0)  -->
<svg version="1.1" id="Layer_1" xmlns="http://www.w3.org/2000/svg" xmlns:xlink="http://www.w3.org/1999/xlink" x="0px" y="0px"
	 viewBox="0 0 200 200" style="enable-background:new 0 0 200 200;" xml:space="preserve">
<style type="text/css">
	.st0{fill:#231F20;}
	.st1{fill:#FFFFFF;}
</style>
<circle class="st0" cx="100" cy="100" r="100"/>
<g>
	<path class="st1" d="M47.5,100.5c0-9.4,4.6-18.3,12.2-23.7C78,63.4,96.4,50,114.7,36.7c5.7-4.3,13.7-3.3,18.1,2.4
		c0.1,0.1,0.1,0.1,0.2,0.2c4.3,5.5,3.2,13.5-2.3,17.7c-0.3,0.2-0.6,0.4-0.8,0.6c-6.8,5-17.3,9.9-24,14.8
		c-15.3,10.7-18.9,31.8-8.2,47.1c0,0,0,0.1,0.1,0.1c5.6,8,13.3,14.2,22.3,18c3.8,1.6,7.6,3.2,10.7,5.6c5.5,4.4,6.5,12.4,2.1,17.9
		c-1.3,1.6-2.9,2.9-4.7,3.7c-4.7,2.1-10.2,1.2-14.1-2.2c-13-9.5-26.1-19-39.1-28.4c-5-3.6-10.1-7.2-15-11
		C52.5,118,47.9,109.6,47.5,100.5z"/>
	<path class="st1" d="M132.7,119.6c-10.8-0.1-19.4-9-19.3-19.7s9-19.4,19.7-19.3c10.8,0.1,19.4,9,19.3,19.7c0,0.1,0,0.2,0,0.2
		c-0.1,10.6-8.7,19.1-19.3,19C133,119.6,132.9,119.6,132.7,119.6z"/>
</g>
</svg>
